<svg width="421" height="80" viewBox="0 0 421 80" fill="none" xmlns="http://www.w3.org/2000/svg">
<path d="M76.6088 4.56344C77.5025 2.36058 75.8495 0 73.4723 0H9.14286C4.0934 0 0 4.0934 0 9.14286V66.7778C0 72.018 5.17081 75.6829 9.9603 73.5568C40.8494 59.8449 64.3785 34.7075 76.6088 4.56344Z" fill="#0070FF"></path>
<path d="M32.5161 80C31.4022 80 30.9357 78.5531 31.8259 77.8835C54.9007 60.5265 71.4338 35.8047 78.7658 8.0522C78.9403 7.39154 80 7.51618 80 8.19951V70.8571C80 75.9066 75.9066 80 70.8571 80H32.5161Z" fill="#0070FF"></path>
<path d="M393.954 45.0034L389.254 39.8255L410.204 17.2021H419.445L393.954 45.0034ZM386.625 57.0321V5.99988H394.193V57.0321H386.625ZM411.877 57.0321L397.22 35.2052L402.159 29.9476L420.958 57.0321H411.877Z" fill="#111827"></path>
<path d="M366.463 35.6042C366.463 31.3026 367.286 27.7976 368.933 25.0891C370.579 22.3807 372.703 20.3626 375.305 19.035C377.908 17.7073 380.643 17.0435 383.51 17.0435V24.2129C381.121 24.2129 378.837 24.5846 376.66 25.3281C374.535 26.0185 372.783 27.1868 371.402 28.8331C370.074 30.4263 369.41 32.6037 369.41 35.3653L366.463 35.6042ZM361.843 57.0328V17.2028H369.41V57.0328H361.843Z" fill="#111827"></path>
<path d="M336.622 57.9884C332.639 57.9884 329.134 57.1122 326.107 55.3597C323.08 53.554 320.69 51.0846 318.938 47.9513C317.238 44.818 316.389 41.2067 316.389 37.1175C316.389 33.0283 317.238 29.417 318.938 26.2837C320.637 23.1505 323 20.7075 326.028 18.955C329.055 17.1494 332.533 16.2466 336.463 16.2466C340.393 16.2466 343.871 17.1494 346.898 18.955C349.926 20.7075 352.289 23.1505 353.988 26.2837C355.688 29.417 356.537 33.0283 356.537 37.1175C356.537 41.2067 355.688 44.818 353.988 47.9513C352.289 51.0846 349.926 53.554 346.898 55.3597C343.925 57.1122 340.499 57.9884 336.622 57.9884ZM336.622 51.058C339.012 51.058 341.136 50.4738 342.995 49.3055C344.854 48.084 346.288 46.4377 347.297 44.3666C348.359 42.2954 348.89 39.8791 348.89 37.1175C348.89 34.356 348.359 31.9396 347.297 29.8684C346.288 27.7973 344.827 26.1775 342.915 25.0092C341.004 23.7877 338.853 23.177 336.463 23.177C334.02 23.177 331.869 23.7877 330.011 25.0092C328.152 26.1775 326.691 27.7973 325.629 29.8684C324.567 31.9396 324.036 34.356 324.036 37.1175C324.036 39.8791 324.567 42.2954 325.629 44.3666C326.691 46.4377 328.178 48.084 330.09 49.3055C332.002 50.4738 334.179 51.058 336.622 51.058Z" fill="#111827"></path>
<path d="M295.547 57.0322L309.009 17.2021H316.577L303.035 57.0322H295.547ZM268.701 57.0322L281.925 17.2021H288.776L275.711 57.0322H268.701ZM268.144 57.0322L254.602 17.2021H262.249L275.393 57.0322H268.144ZM295.547 57.0322L282.483 17.2021H289.413L302.557 57.0322H295.547Z" fill="#111827"></path>
<path d="M218.174 57.0326V6.00235H225.662V57.0326H218.174ZM245.736 57.0326V36.6396H253.224V57.0326H245.736ZM245.736 36.6396C245.736 33.0284 245.311 30.2934 244.462 28.4346C243.612 26.5228 242.444 25.1951 240.957 24.4516C239.523 23.7081 237.876 23.3098 236.018 23.2567C232.725 23.2567 230.176 24.3985 228.37 26.6821C226.565 28.9657 225.662 32.1786 225.662 36.321H222.475C222.475 32.1255 223.086 28.5408 224.308 25.5669C225.582 22.5398 227.361 20.2296 229.645 18.6364C231.982 17.0432 234.743 16.2466 237.93 16.2466C241.063 16.2466 243.771 16.8839 246.055 18.1585C248.338 19.433 250.118 21.4246 251.392 24.133C252.667 26.7883 253.277 30.2934 253.224 34.6481V36.6396H245.736Z" fill="#111827"></path>
<path d="M198.232 57.9884C195.417 57.9884 192.895 57.5636 190.664 56.7139C188.487 55.8642 186.628 54.7224 185.088 53.2885C183.601 51.8546 182.486 50.2349 181.742 48.4292L188.274 45.5615C189.124 47.2078 190.399 48.562 192.098 49.6241C193.797 50.6863 195.683 51.2173 197.754 51.2173C200.037 51.2173 201.923 50.7925 203.41 49.9428C204.897 49.0931 205.64 47.8982 205.64 46.3581C205.64 44.8711 205.083 43.7027 203.967 42.853C202.852 42.0033 201.232 41.3129 199.108 40.7819L195.364 39.826C191.647 38.8169 188.752 37.3034 186.681 35.2853C184.663 33.2673 183.654 30.9837 183.654 28.4346C183.654 24.5578 184.902 21.5573 187.398 19.433C189.894 17.3087 193.585 16.2466 198.471 16.2466C200.861 16.2466 203.038 16.5918 205.003 17.2822C207.021 17.9725 208.72 18.955 210.101 20.2296C211.535 21.5041 212.544 23.0177 213.128 24.7702L206.755 27.638C206.118 26.0448 205.029 24.8764 203.489 24.1329C201.949 23.3363 200.144 22.938 198.072 22.938C195.948 22.938 194.275 23.416 193.054 24.3719C191.832 25.2747 191.222 26.5493 191.222 28.1956C191.222 29.0984 191.726 29.9747 192.735 30.8244C193.797 31.621 195.337 32.2848 197.356 32.8159L201.657 33.8515C204.259 34.4887 206.41 35.4712 208.11 36.7989C209.809 38.0734 211.084 39.5339 211.933 41.1802C212.783 42.7734 213.208 44.4462 213.208 46.1988C213.208 48.5886 212.544 50.6863 211.216 52.4919C209.942 54.2444 208.163 55.5986 205.879 56.5546C203.649 57.5105 201.1 57.9884 198.232 57.9884Z" fill="#111827"></path>
<path d="M169.393 57.0322L168.915 49.7034V17.2021H176.403V57.0322H169.393ZM141.353 37.5951V17.2021H148.92V37.5951H141.353ZM148.92 37.5951C148.92 41.1533 149.319 43.8883 150.115 45.8001C150.965 47.7119 152.133 49.0396 153.62 49.7831C155.107 50.5266 156.78 50.9249 158.639 50.978C161.878 50.978 164.401 49.8362 166.206 47.5526C168.012 45.269 168.915 42.0561 168.915 37.9138H172.181C172.181 42.1092 171.544 45.7204 170.269 48.7475C169.048 51.7215 167.295 54.0051 165.012 55.5983C162.728 57.1915 159.94 57.9881 156.647 57.9881C153.567 57.9881 150.859 57.3508 148.522 56.0762C146.238 54.8017 144.459 52.8102 143.185 50.1017C141.963 47.3933 141.353 43.8883 141.353 39.5866V37.5951H148.92Z" fill="#111827"></path>
<path d="M114.72 74.0001C112.065 74.0001 109.648 73.7346 107.471 73.2035C105.294 72.7255 103.461 72.1679 101.975 71.5306C100.488 70.8934 99.3723 70.3358 98.6288 69.8578L101.497 63.724C102.187 64.1488 103.169 64.6268 104.444 65.1578C105.719 65.742 107.206 66.22 108.905 66.5917C110.604 67.0166 112.49 67.229 114.561 67.229C117.004 67.229 119.181 66.7245 121.093 65.7155C123.005 64.7595 124.492 63.246 125.554 61.1748C126.669 59.1037 127.227 56.4483 127.227 53.2088V17.2025H134.794V53.0495C134.794 57.6167 133.918 61.4404 132.166 64.5206C130.466 67.6539 128.103 70.0171 125.076 71.6103C122.102 73.2035 118.65 74.0001 114.72 74.0001ZM114.003 56.4749C110.392 56.4749 107.232 55.6517 104.524 54.0054C101.868 52.306 99.7706 49.9693 98.2305 46.9954C96.7435 43.9683 96 40.4898 96 36.5599C96 32.4707 96.7435 28.9125 98.2305 25.8854C99.7706 22.8584 101.868 20.4951 104.524 18.7957C107.232 17.0963 110.392 16.2466 114.003 16.2466C117.296 16.2466 120.164 17.0963 122.606 18.7957C125.102 20.4951 127.014 22.8849 128.342 25.9651C129.723 28.9922 130.413 32.5503 130.413 36.6396C130.413 40.5694 129.723 44.0479 128.342 47.075C127.014 50.049 125.102 52.3591 122.606 54.0054C120.164 55.6517 117.296 56.4749 114.003 56.4749ZM115.915 50.1021C118.145 50.1021 120.084 49.5179 121.73 48.3496C123.376 47.1281 124.678 45.5084 125.634 43.4903C126.589 41.4192 127.067 39.0559 127.067 36.4006C127.067 33.7452 126.589 31.4085 125.634 29.3905C124.678 27.3724 123.35 25.8058 121.651 24.6905C120.004 23.5222 118.066 22.938 115.835 22.938C113.499 22.938 111.427 23.5222 109.622 24.6905C107.869 25.8058 106.489 27.3724 105.48 29.3905C104.471 31.4085 103.966 33.7452 103.966 36.4006C103.966 39.0559 104.471 41.4192 105.48 43.4903C106.542 45.5084 107.949 47.1281 109.702 48.3496C111.507 49.5179 113.578 50.1021 115.915 50.1021Z" fill="#111827"></path>
</svg>